<?xml version="1.0" encoding="utf-8"?>
<!-- Generator: Adobe Illustrator 18.0.0, SVG Export Plug-In . SVG Version: 6.00 Build 0)  -->
<!DOCTYPE svg PUBLIC "-//W3C//DTD SVG 1.1//EN" "http://www.w3.org/Graphics/SVG/1.1/DTD/svg11.dtd">
<svg version="1.1" xmlns="http://www.w3.org/2000/svg" xmlns:xlink="http://www.w3.org/1999/xlink" x="0px" y="0px"
	 viewBox="0 0 572.755 132.813" enable-background="new 0 0 572.755 132.813" xml:space="preserve">
<g id="Grid">
</g>
<g id="Fonts">
</g>
<g id="Logo">
	<g>
		<g>
			<g>
				<path fill="#C3922E" d="M148.674,48.162h4.206v17.652h21.426V48.162h4.206v42.083h-4.206V69.934H152.88v20.311h-4.206V48.162z"
					/>
				<path fill="#C3922E" d="M189.483,46.302c0.912,0,1.691,0.325,2.337,0.973c0.645,0.649,0.968,1.431,0.968,2.346
					c0,0.897-0.324,1.669-0.968,2.317c-0.646,0.649-1.425,0.973-2.337,0.973c-0.892,0-1.661-0.324-2.307-0.973
					c-0.645-0.648-0.968-1.42-0.968-2.317c0-0.915,0.324-1.697,0.968-2.346C187.822,46.627,188.591,46.302,189.483,46.302z
					 M187.495,59.119h4.005v31.125h-4.005V59.119z"/>
				<path fill="#C3922E" d="M203.316,47.561h4.005v11.558h6.35v3.461h-6.35v27.664h-4.005V62.581h-5.464v-3.461h5.464V47.561z"/>
				<path fill="#C3922E" d="M249.89,65.585l-3.175,1.973c-2.744-3.642-6.488-5.464-11.231-5.464c-3.792,0-6.939,1.22-9.444,3.657
					c-2.505,2.439-3.758,5.402-3.758,8.888c0,2.266,0.577,4.401,1.729,6.4c1.152,2,2.734,3.553,4.743,4.658
					c2.01,1.106,4.262,1.657,6.758,1.657c4.572,0,8.306-1.821,11.202-5.464l3.175,2.089c-1.489,2.239-3.486,3.978-5.994,5.212
					c-2.508,1.236-5.364,1.853-8.567,1.853c-4.921,0-9.003-1.564-12.244-4.692c-3.243-3.127-4.863-6.933-4.863-11.414
					c0-3.013,0.758-5.812,2.273-8.396c1.517-2.584,3.601-4.602,6.251-6.052c2.651-1.449,5.617-2.174,8.897-2.174
					c2.06,0,4.049,0.315,5.965,0.944c1.917,0.629,3.543,1.45,4.879,2.461C247.82,62.733,248.956,64.021,249.89,65.585z"/>
				<path fill="#C3922E" d="M257.585,47.103h4.005v17.595c1.622-2.136,3.404-3.734,5.35-4.793c1.945-1.059,4.053-1.588,6.322-1.588
					c2.327,0,4.392,0.592,6.194,1.774c1.803,1.183,3.133,2.77,3.991,4.764c0.858,1.993,1.288,5.116,1.288,9.369v16.02h-4.005V75.398
					c0-3.585-0.143-5.98-0.43-7.18c-0.496-2.06-1.397-3.609-2.703-4.65c-1.306-1.039-3.018-1.559-5.135-1.559
					c-2.423,0-4.592,0.802-6.509,2.403c-1.917,1.602-3.181,3.587-3.79,5.95c-0.382,1.527-0.573,4.349-0.573,8.468v11.414h-4.005
					V47.103z"/>
				<path fill="#C3922E" d="M319.522,79.917l3.376,1.774c-1.108,2.174-2.386,3.929-3.838,5.263c-1.45,1.336-3.082,2.351-4.896,3.047
					c-1.814,0.697-3.867,1.045-6.157,1.045c-5.078,0-9.048-1.664-11.912-4.992c-2.863-3.328-4.295-7.09-4.295-11.286
					c0-3.949,1.212-7.467,3.636-10.556c3.073-3.93,7.187-5.895,12.342-5.895c5.307,0,9.544,2.012,12.712,6.037
					c2.253,2.842,3.399,6.389,3.437,10.643H295.92c0.076,3.615,1.231,6.578,3.465,8.89c2.235,2.313,4.995,3.468,8.279,3.468
					c1.585,0,3.126-0.274,4.626-0.826c1.499-0.551,2.772-1.282,3.823-2.194C317.162,83.423,318.299,81.95,319.522,79.917z
					 M319.522,71.535c-0.534-2.136-1.313-3.843-2.335-5.121c-1.022-1.278-2.372-2.307-4.053-3.09
					c-1.681-0.782-3.447-1.172-5.299-1.172c-3.055,0-5.68,0.983-7.877,2.946c-1.603,1.431-2.816,3.575-3.638,6.437H319.522z"/>
				<path fill="#C3922E" d="M362.463,47.103v43.141h-3.949v-5.35c-1.678,2.041-3.561,3.577-5.649,4.606
					c-2.089,1.031-4.373,1.545-6.852,1.545c-4.405,0-8.167-1.597-11.286-4.792c-3.119-3.194-4.678-7.08-4.678-11.658
					c0-4.481,1.574-8.316,4.721-11.501c3.147-3.184,6.933-4.778,11.358-4.778c2.556,0,4.867,0.544,6.937,1.631
					c2.07,1.087,3.886,2.719,5.45,4.893V47.103H362.463z M346.456,62.181c-2.229,0-4.286,0.547-6.172,1.643
					c-1.886,1.096-3.387,2.634-4.501,4.616c-1.114,1.981-1.671,4.076-1.671,6.285c0,2.191,0.561,4.286,1.685,6.287
					c1.124,2,2.634,3.558,4.53,4.672c1.896,1.114,3.929,1.671,6.102,1.671c2.19,0,4.267-0.551,6.229-1.657
					c1.962-1.105,3.471-2.6,4.53-4.486c1.056-1.886,1.585-4.011,1.585-6.373c0-3.599-1.186-6.611-3.557-9.03
					C352.842,63.391,349.923,62.181,346.456,62.181z"/>
				<path fill="#C3922E" d="M388.439,48.162h24.117v4.12h-19.911V65.47h19.74v4.12h-19.74v16.535h19.74v4.12h-23.946V48.162z"/>
				<path fill="#C3922E" d="M416.217,59.119h4.262l10.449,22.69l10.322-22.69h4.291l-14.246,31.125h-0.745L416.217,59.119z"/>
				<path fill="#C3922E" d="M477.84,79.917l3.376,1.774c-1.108,2.174-2.386,3.929-3.838,5.263c-1.451,1.336-3.082,2.351-4.896,3.047
					c-1.814,0.697-3.867,1.045-6.157,1.045c-5.078,0-9.048-1.664-11.912-4.992c-2.863-3.328-4.295-7.09-4.295-11.286
					c0-3.949,1.212-7.467,3.636-10.556c3.073-3.93,7.187-5.895,12.342-5.895c5.307,0,9.544,2.012,12.712,6.037
					c2.253,2.842,3.399,6.389,3.437,10.643h-28.007c0.076,3.615,1.231,6.578,3.465,8.89c2.235,2.313,4.995,3.468,8.279,3.468
					c1.585,0,3.126-0.274,4.626-0.826c1.499-0.551,2.772-1.282,3.823-2.194C475.481,83.423,476.617,81.95,477.84,79.917z
					 M477.84,71.535c-0.534-2.136-1.313-3.843-2.335-5.121c-1.022-1.278-2.372-2.307-4.053-3.09
					c-1.681-0.782-3.447-1.172-5.299-1.172c-3.055,0-5.68,0.983-7.877,2.946c-1.603,1.431-2.816,3.575-3.638,6.437H477.84z"/>
				<path fill="#C3922E" d="M489.713,59.119h4.005v5.579c1.602-2.136,3.375-3.734,5.32-4.793c1.947-1.059,4.063-1.588,6.352-1.588
					c2.327,0,4.391,0.592,6.194,1.774c1.803,1.183,3.133,2.774,3.991,4.778c0.858,2.002,1.286,5.12,1.286,9.355v16.02h-4.005V75.398
					c0-3.585-0.148-5.98-0.445-7.18c-0.464-2.06-1.354-3.609-2.671-4.65c-1.316-1.039-3.032-1.559-5.149-1.559
					c-2.423,0-4.593,0.802-6.51,2.403c-1.917,1.602-3.181,3.587-3.792,5.95c-0.382,1.545-0.571,4.368-0.571,8.468v11.414h-4.005
					V59.119z"/>
				<path fill="#C3922E" d="M528.934,47.561h4.005v11.558h6.35v3.461h-6.35v27.664h-4.005V62.581h-5.464v-3.461h5.464V47.561z"/>
				<path fill="#C3922E" d="M560.946,62.524l-2.576,2.661c-2.142-2.08-4.236-3.119-6.281-3.119c-1.301,0-2.415,0.428-3.341,1.286
					c-0.929,0.859-1.391,1.86-1.391,3.004c0,1.011,0.382,1.975,1.147,2.89c0.763,0.935,2.37,2.032,4.815,3.29
					c2.982,1.545,5.007,3.032,6.079,4.463c1.05,1.449,1.576,3.081,1.576,4.891c0,2.556-0.898,4.72-2.693,6.495
					c-1.797,1.774-4.04,2.661-6.734,2.661c-1.795,0-3.51-0.392-5.143-1.173c-1.633-0.782-2.984-1.859-4.055-3.232l2.518-2.861
					c2.046,2.307,4.216,3.461,6.509,3.461c1.606,0,2.973-0.515,4.101-1.544c1.127-1.031,1.691-2.241,1.691-3.633
					c0-1.145-0.372-2.164-1.117-3.061c-0.746-0.878-2.429-1.984-5.046-3.319c-2.81-1.449-4.722-2.88-5.734-4.291
					c-1.014-1.411-1.52-3.023-1.52-4.835c0-2.365,0.807-4.329,2.422-5.894c1.613-1.564,3.653-2.346,6.117-2.346
					C555.157,58.318,558.043,59.72,560.946,62.524z"/>
			</g>
		</g>
		<path fill="#EC008C" d="M56.004,89.127c-0.34-2.096-0.844-4.178-1.59-6.299c-1.834-5.216-4.275-9.932-7.675-14.097
			c-3.477-4.258-7.98-7.78-12.622-10.289c-4.811-2.6-9.667-4.982-12.489-10.282c-4.927-9.255-0.669-20.532,7.955-24.514
			c9.091-4.198,20.016,2.102,21.475,13.099c0.443,3.341,4.51,4.204,5.475,0.688c2.615-9.523,11.188-16.332,20.045-16.859
			c4.242-0.252,9.164,1.205,11.571,5.351c2.489,4.287,0.777,10.306-1.006,14.513c-4.113-3.732-9.304-5.959-14.738-5.756
			C60.171,35.14,50.89,46.735,50.82,59.98c-0.034,6.487,2.432,12.739,6.271,17.532c0.864,1.079,1.82,2.034,2.839,2.902
			C58.359,83.205,56.985,86.091,56.004,89.127z"/>
		<path fill="#92278F" d="M135.947,52.277c0.616-6.645-2.278-12.45-7.009-16.277c-4.714-3.813-11.055-4.103-16.585-3.125
			c-8.219,1.453-15.183,7.606-19.258,15.487c-0.265-0.537-0.549-1.062-0.847-1.577c2.478-4.484,4.17-9.403,4.66-14.693
			c0.616-6.645-2.278-12.45-7.009-16.277c-4.715-3.813-11.055-4.103-16.585-3.125c-8.219,1.453-15.183,7.606-19.258,15.487
			c-4.062-8.222-12.072-14.001-20.689-13.679C21.132,14.955,11.85,26.55,11.781,39.795c-0.034,6.487,2.432,12.739,6.271,17.532
			c4.413,5.509,11.18,7.877,16.903,11.185c5.384,3.112,8.712,8.247,12.495,13.223c3.796,4.992,6.356,12.261,7.126,18.68
			c0.435-0.819,4.898-11.179,8.43-17.729c3.529,2.285,7.457,3.97,10.989,6.011c5.384,3.112,8.712,8.247,12.495,13.223
			c3.796,4.992,6.356,12.261,7.126,18.679c0.516-0.97,6.688-15.339,10.263-20.889c3.525-5.472,7.716-10.402,12.3-14.798
			c4.827-4.629,9.308-8.958,13.142-14.687C132.876,64.911,135.335,58.876,135.947,52.277z M56.004,89.127
			c-0.34-2.096-0.844-4.178-1.59-6.299c-1.834-5.216-4.275-9.932-7.675-14.097c-3.477-4.258-7.98-7.78-12.622-10.289
			c-4.811-2.6-9.667-4.982-12.489-10.282c-4.927-9.255-0.669-20.532,7.955-24.514c9.091-4.198,20.016,2.102,21.475,13.099
			c0.443,3.341,4.51,4.204,5.475,0.688c2.615-9.523,11.188-16.332,20.045-16.859c4.242-0.252,9.164,1.205,11.571,5.351
			c2.489,4.287,0.777,10.306-1.006,14.513c-4.113-3.732-9.304-5.959-14.738-5.756C60.171,35.14,50.89,46.735,50.82,59.98
			c-0.034,6.487,2.432,12.739,6.271,17.532c0.864,1.079,1.82,2.034,2.839,2.902C58.359,83.205,56.985,86.091,56.004,89.127z"/>
	</g>
</g>
</svg>
