<?xml version="1.0" encoding="utf-8"?>
<!-- Generator: Adobe Illustrator 18.0.0, SVG Export Plug-In . SVG Version: 6.00 Build 0)  -->
<!DOCTYPE svg PUBLIC "-//W3C//DTD SVG 1.1//EN" "http://www.w3.org/Graphics/SVG/1.1/DTD/svg11.dtd">
<svg version="1.1" xmlns="http://www.w3.org/2000/svg" xmlns:xlink="http://www.w3.org/1999/xlink" x="0px" y="0px"
	 viewBox="0 0 350 350" enable-background="new 0 0 350 350" xml:space="preserve">
<g id="Grid">
</g>
<g id="Fonts">
</g>
<g id="Logo">
	<g>
		<path fill="#EC008C" d="M129.465,232.796c-0.864-5.331-2.147-10.627-4.044-16.022c-4.665-13.269-10.874-25.264-19.524-35.859
			c-8.843-10.832-20.298-19.79-32.108-26.172c-12.237-6.614-24.591-12.673-31.768-26.156c-12.532-23.543-1.703-52.228,20.234-62.356
			c23.127-10.678,50.915,5.346,54.628,33.32c1.128,8.499,11.471,10.695,13.927,1.751c6.652-24.224,28.46-41.545,50.99-42.884
			c10.791-0.641,23.312,3.066,29.434,13.612c6.332,10.906,1.976,26.216-2.559,36.919c-10.464-9.494-23.666-15.159-37.489-14.643
			c-31.123,1.162-54.733,30.656-54.909,64.35c-0.086,16.501,6.186,32.406,15.952,44.597c2.198,2.744,4.63,5.173,7.223,7.382
			C135.453,217.733,131.958,225.074,129.465,232.796z"/>
		<path fill="#92278F" d="M332.82,139.059c1.567-16.902-5.796-31.671-17.829-41.404c-11.992-9.7-28.121-10.437-42.187-7.95
			c-20.907,3.695-38.622,19.348-48.988,39.396c-0.675-1.366-1.397-2.702-2.155-4.012c6.303-11.406,10.606-23.919,11.854-37.375
			c1.568-16.902-5.796-31.671-17.829-41.404c-11.993-9.7-28.121-10.437-42.188-7.95c-20.907,3.695-38.622,19.348-48.988,39.396
			C114.175,56.841,93.8,42.14,71.881,42.959c-31.122,1.163-54.733,30.656-54.909,64.35c-0.086,16.501,6.187,32.406,15.952,44.597
			c11.225,14.013,28.44,20.037,42.997,28.451c13.695,7.916,22.16,20.979,31.784,33.635c9.655,12.699,16.168,31.189,18.126,47.516
			c1.108-2.082,12.46-28.437,21.443-45.099c8.976,5.812,18.969,10.099,27.953,15.292c13.695,7.915,22.16,20.978,31.784,33.635
			c9.655,12.698,16.167,31.189,18.126,47.516c1.312-2.467,17.012-39.02,26.106-53.136c8.967-13.919,19.627-26.459,31.288-37.643
			c12.278-11.775,23.678-22.788,33.43-37.361C325.007,171.195,331.263,155.845,332.82,139.059z M129.465,232.796
			c-0.864-5.331-2.147-10.627-4.044-16.022c-4.665-13.269-10.874-25.264-19.524-35.859c-8.843-10.832-20.298-19.79-32.108-26.172
			c-12.237-6.614-24.591-12.673-31.768-26.156c-12.532-23.543-1.703-52.228,20.234-62.356c23.127-10.678,50.915,5.346,54.628,33.32
			c1.128,8.499,11.471,10.695,13.927,1.751c6.652-24.224,28.46-41.545,50.99-42.884c10.791-0.641,23.312,3.066,29.434,13.612
			c6.332,10.906,1.976,26.216-2.559,36.919c-10.464-9.494-23.666-15.159-37.489-14.643c-31.123,1.162-54.733,30.656-54.909,64.35
			c-0.086,16.501,6.186,32.406,15.952,44.597c2.198,2.744,4.63,5.173,7.223,7.382C135.453,217.733,131.958,225.074,129.465,232.796z
			"/>
	</g>
</g>
</svg>
